<?xml version="1.0" encoding="UTF-8"?>
<svg id="Layer_2" data-name="Layer 2" xmlns="http://www.w3.org/2000/svg" viewBox="0 0 552.58 257.42">
  <defs>
    <style>
      .cls-1 {
        fill: none;
      }

      .cls-1, .cls-2 {
        stroke-width: 0px;
      }

      .cls-3 {
        font-family: Speedy-Regular, Speedy;
        font-size: 35.79px;
      }

      .cls-3, .cls-2 {
        fill: #fff;
      }
    </style>
  </defs>
  <g id="Layer_3" data-name="Layer 3">
    <path class="cls-2" d="M35.33,73.9l-28.41,16.48s-18.82,52.55,5.6,75.45l9.83,3.68s-17.97-64.15,12.99-95.6Z"/>
    <polygon class="cls-2" points="218.7 14.47 212.45 14.47 236.2 81.15 245.62 81.25 218.7 14.47"/>
    <path class="cls-2" d="M542.7,193.82c-1.97,1.8-4.21,3.21-6.54,4.34-3.01,1.47-6.14,2.59-9.27,3.72-2.97,1.07-6,2.65-9.17,2.66,4.18-.01,8.48-.05,12.71-.11,2.18-.03,4.36-.06,6.54-.1,2.02-.03,4.13.23,6.12-.2,2.33-.5,4.62-1.84,5.84-4.11,1.21-2.22,1.23-4.97,1.22-7.57-.03-5.46-.05-10.92-.08-16.39.01,3.12-1.16,6.66-2.3,9.46-1.1,2.72-2.45,5.7-4.46,7.69-.2.2-.41.4-.62.59Z"/>
    <path class="cls-2" d="M352.72,207.09s50.36,91.46,142.16.18l-13.42,6.31s-61.97,75.4-128.74-6.49Z"/>
    <path class="cls-2" d="M118.62,241.44c-14.86,0-29.26-5.94-42.91-17.68,7.34,7.43,21.56,18.36,41.67,18.36,17.92,0,36.93-8.54,56.53-25.38l-7.03,3.02c-1.38,1.45-21.09,21.68-48.25,21.68Z"/>
    <path class="cls-2" d="M418.08,231.5c-14.84-.67-28.96-7.25-42.07-19.6,7,7.76,20.71,19.31,40.8,20.22,17.9.81,37.28-6.86,57.61-22.81l-7.16,2.7c-1.44,1.39-22.04,20.71-49.18,19.49Z"/>
    <g>
      <g>
        <path class="cls-2" d="M162.63,147.6c2.1,0,4.08.35,5.94,1.04,1.86.69,3.46,1.63,4.83,2.82,1.36,1.19,2.44,2.57,3.25,4.15s1.21,3.27,1.21,5.08v1.44c0,2.48-.74,4.77-2.23,6.87-1.49,2.09-3.53,3.71-6.13,4.84l11.57,11.02h-11.45l-10.02-9.58h-12.81v-7.34h15.84c.95,0,1.82-.15,2.63-.45s1.51-.71,2.1-1.22c.6-.51,1.07-1.13,1.42-1.84.35-.71.53-1.47.53-2.29v-1.44c0-.82-.18-1.57-.53-2.26-.35-.69-.83-1.29-1.42-1.81-.6-.51-1.3-.92-2.1-1.22s-1.68-.45-2.63-.45h-19.68v29.91h-8.48v-37.25h28.15Z"/>
        <path class="cls-2" d="M183.61,184.86l19.86-34.86c.58-.99,1.41-1.77,2.51-2.34,1.09-.57,2.28-.85,3.56-.85s2.55.29,3.68.88c1.13.59,1.99,1.39,2.57,2.42l19.86,34.75h-9.53l-4.27-7.5h-24.5l-4.21,7.5h-9.53ZM201.49,170.06h16.21l-8.1-14.26-8.11,14.26Z"/>
        <path class="cls-2" d="M265.71,147.6c2.64,0,5.11.44,7.42,1.3,2.31.87,4.33,2.05,6.06,3.54,1.73,1.49,3.1,3.24,4.11,5.24,1.01,2,1.52,4.14,1.52,6.41v4.31c0,2.27-.51,4.4-1.52,6.39-1.01,1.99-2.38,3.73-4.11,5.22-1.73,1.49-3.75,2.67-6.06,3.54-2.31.87-4.79,1.3-7.42,1.3h-24.25v-37.25h24.25ZM276.29,164.1c0-1.28-.28-2.47-.84-3.57-.56-1.1-1.31-2.07-2.26-2.9s-2.07-1.49-3.37-1.97c-1.3-.48-2.67-.72-4.11-.72h-15.78v22.62h15.78c1.44,0,2.81-.24,4.11-.72,1.3-.48,2.42-1.13,3.37-1.97.95-.83,1.7-1.8,2.26-2.9.56-1.1.84-2.29.84-3.56v-4.31Z"/>
      </g>
      <text class="cls-3" transform="translate(292.6 184.86) scale(1.2 1)"><tspan x="0" y="0">cars</tspan></text>
    </g>
    <polygon class="cls-2" points="494.56 94.44 493.9 101.22 512.9 103.05 507.41 95.68 494.56 94.44"/>
    <g>
      <path class="cls-2" d="M490.84,101.74c-.09,0-.19-.01-.28-.02-4.41-.26-9.01-.51-14.05-.75-4.81-.23-9.61-.45-14.42-.64-4.76-.2-9.52-.37-14.29-.54-4.55-.16-9.09-.31-13.64-.44-4.16-.13-8.32-.24-12.48-.35-3.61-.09-7.21-.18-10.82-.27-2.88-.07-5.76-.13-8.64-.19-.01,0-.02,0-.03,0-.56,0-1.07.3-1.4.81-.4.63-.44,1.45-.11,2.13.3.61.87,1,1.48,1.01,2.31.04,6.75-.04,12.89-.17,8.62-.17,20.2-.4,32.89-.4,13.73,0,28.77.27,42.77,1.18l.13-1.36Z"/>
      <path class="cls-2" d="M551.64,123.02c.08-1.31.15-2.55-.22-3.81-.61-2.06-1.86-3.73-3.84-5.11-3.81-2.67-7.12-4.55-10.42-5.94-3.7-1.55-7.76-2.71-12.42-3.55-2.57-.46-5.16-.82-7.77-1.11l2.09,2.81c10.72,1.96,18.93,4.74,22.57,8.68,5.18,5.61,8.29,11.33,10.03,15.3.02-1.57.01-3.16-.08-4.7-.05-.89,0-1.74.04-2.55Z"/>
    </g>
    <path class="cls-2" d="M533.76,96.4c-36.06-6.97-113.58-15.51-142.99-18.64l6.82,15.34c.24.54.36,1.12.34,1.7,0,.01,0,.03,0,.04,21.09.53,62.73,1.68,93.27,3.14l.37-3.83.29-2.99,2.99.29,12.85,1.24,1.32.13.79,1.07,4.03,5.41c5.33.4,9.46.81,11.88,1.22,6.68,1.15,11.99,3.33,16.08,5.66,0-4.76-3.37-8.87-8.05-9.77Z"/>
    <path class="cls-2" d="M549.65,155.67s6.17-7.86.59-19.44l-.59,19.44Z"/>
    <path class="cls-2" d="M407.01,118.05l2.24,5h131.2c0-2.76-2.24-5-5-5h-128.44Z"/>
    <polygon class="cls-2" points="257.9 123.05 403.98 123.05 402.05 118.05 255.89 118.05 257.9 123.05"/>
    <path class="cls-2" d="M60.71,123.05h189.2l-1.78-5H80.06c-2.31,0-4.61.31-6.83.96-3.97,1.15-8.26,2.5-12.51,4.04Z"/>
    <path class="cls-2" d="M332.9,208.61h-144.58l-6.67,12.54c-3,3.78-63.45,78.02-128.64-7.22,0,0,50.03,96.77,140.98,1.6l138.9-6.92Z"/>
    <path class="cls-2" d="M231.93,87.42l-134.55,1.7c-2.77,1.57-4.95,3.15-6.51,4.4l145.06-.23-2.31-5.84-1.69-.02Z"/>
    <path class="cls-2" d="M390.25,93.05l-.06-.06,1.46-.04-36.65-82.36c-116.31-22.83-279.36-1.92-293.92.02l-18.04,83.16,25.6-74.49.93-.12c124.29-15.49,278.17-4.7,279.71-4.59l.89.06,27.96,62.37c.89,1.69,1.28,3.58,1.13,5.49l-.1,1.29-1.29.08c-14.55.96-66.51,4.03-130.02,3.67l2.6,5.72,139.79-.22Z"/>
    <polygon class="cls-2" points="415.72 153.22 466.93 153.22 495.16 193.61 464.91 157.44 415.72 155.67 415.72 153.22"/>
    <polygon class="cls-2" points="117.11 153.22 75.79 153.22 53.02 193.61 77.43 157.44 117.11 155.67 117.11 153.22"/>
    <line class="cls-1" x1="522.1" y1="103.15" x2="522.1" y2="103.15"/>
  </g>
</svg>